# xmcd
#
# Track frame offsets:
#	150
#	8711
#	27181
#	41174
#	51683
#	61990
#	73987
#	85927
#	93783
#	103101
#	114976
#	125293
#	135458
#	146763
#	160313
#
# Disc length: 2271 seconds
# Revision: 1
# Processed by: cddbd v1.5.2PL0 Copyright (c) Steve Scherf et al.
# Submitted via: dBpowerAMP V12.0
#
DISCID=d108dd0f
DTITLE=Johnny Cash - The Legendary Johnny Cash Disk 1
DYEAR=2006
DGENRE=Country
TTITLE0=Guess Things Happen That Way
TTITLE1=One Piece At A Time
TTITLE2=Oney
TTITLE3=There You Go
TTITLE4=The Ways Of A Woman In Love
TTITLE5=You're The Nearest Thing To Heaven
TTITLE6=So Doggone Lonesome
TTITLE7=Come In Stranger
TTITLE8=Luther Played The Boogie
TTITLE9=Thanks A Lot
TTITLE10=Get Rhythmn
TTITLE11=Rock Island Liine
TTITLE12=Mean Eyed Cat
TTITLE13=Look At Them Beans
TTITLE14=Born To Lose
EXTD=
EXTT0=
EXTT1=
EXTT2=
EXTT3=
EXTT4=
EXTT5=
EXTT6=
EXTT7=
EXTT8=
EXTT9=
EXTT10=
EXTT11=
EXTT12=
EXTT13=
EXTT14=
PLAYORDER=
